<svg xmlns="http://www.w3.org/2000/svg" style="display:none">
  <!-- ===== Motifs bijoux (stroke = currentColor) ===== -->
  <symbol id="etoile" viewBox="0 0 100 100" fill="none" stroke="currentColor" stroke-width="4" stroke-linejoin="round" stroke-linecap="round">
    <path d="M50 10 L61 39 L92 40 L68 60 L76 91 L50 73 L24 91 L32 60 L8 40 L39 39 Z"/>
  </symbol>
  <symbol id="coeur" viewBox="0 0 100 100" fill="none" stroke="currentColor" stroke-width="4" stroke-linejoin="round">
    <path d="M50 84 C12 58 18 20 50 38 C82 20 88 58 50 84 Z"/>
  </symbol>
  <symbol id="infini" viewBox="0 0 100 100" fill="none" stroke="currentColor" stroke-width="4" stroke-linejoin="round">
    <path d="M50 50 C40 28 14 28 14 50 C14 72 40 72 50 50 C60 28 86 28 86 50 C86 72 60 72 50 50 Z"/>
  </symbol>
  <symbol id="medaillon" viewBox="0 0 100 100" fill="none" stroke="currentColor" stroke-width="4" stroke-linejoin="round">
    <path d="M30 16 L50 30 L70 16"/>
    <circle cx="50" cy="58" r="28"/>
    <circle cx="50" cy="58" r="14"/>
  </symbol>
  <symbol id="lune" viewBox="0 0 100 100" fill="none" stroke="currentColor" stroke-width="4" stroke-linejoin="round">
    <path d="M64 18 A38 38 0 1 0 64 86 A30 30 0 1 1 64 18 Z"/>
  </symbol>
  <symbol id="trefle" viewBox="0 0 100 100" fill="none" stroke="currentColor" stroke-width="4" stroke-linejoin="round">
    <circle cx="50" cy="32" r="14"/>
    <circle cx="32" cy="50" r="14"/>
    <circle cx="68" cy="50" r="14"/>
    <circle cx="50" cy="68" r="14"/>
    <path d="M50 68 L50 92"/>
  </symbol>
  <symbol id="fleur" viewBox="0 0 100 100" fill="none" stroke="currentColor" stroke-width="4" stroke-linejoin="round">
    <circle cx="50" cy="26" r="13"/>
    <circle cx="73" cy="42" r="13"/>
    <circle cx="64" cy="70" r="13"/>
    <circle cx="36" cy="70" r="13"/>
    <circle cx="27" cy="42" r="13"/>
    <circle cx="50" cy="50" r="9" fill="currentColor"/>
  </symbol>
  <symbol id="puce" viewBox="0 0 100 100" fill="none" stroke="currentColor" stroke-width="4" stroke-linejoin="round">
    <circle cx="50" cy="50" r="20"/>
    <path d="M50 12 L50 24 M50 76 L50 88 M12 50 L24 50 M76 50 L88 50"/>
  </symbol>

  <!-- ===== Icônes fonctions ===== -->
  <symbol id="i-gps" viewBox="0 0 100 100" fill="none" stroke="currentColor" stroke-width="5" stroke-linejoin="round" stroke-linecap="round">
    <path d="M50 12 C32 12 20 26 20 44 C20 66 50 90 50 90 C50 90 80 66 80 44 C80 26 68 12 50 12 Z"/>
    <circle cx="50" cy="42" r="11"/>
  </symbol>
  <symbol id="i-sos" viewBox="0 0 100 100" fill="none" stroke="currentColor" stroke-width="5" stroke-linejoin="round" stroke-linecap="round">
    <circle cx="50" cy="50" r="34"/>
    <path d="M50 30 L50 56"/>
    <circle cx="50" cy="68" r="2.5" fill="currentColor"/>
  </symbol>
  <symbol id="i-zone" viewBox="0 0 100 100" fill="none" stroke="currentColor" stroke-width="5" stroke-linejoin="round" stroke-linecap="round" stroke-dasharray="10 8">
    <rect x="16" y="16" width="68" height="68" rx="12"/>
  </symbol>
  <symbol id="i-france" viewBox="0 0 100 100" fill="none" stroke="currentColor" stroke-width="5" stroke-linejoin="round" stroke-linecap="round">
    <path d="M50 12 L82 24 V52 C82 74 50 90 50 90 C50 90 18 74 18 52 V24 Z"/>
    <path d="M38 50 L47 60 L65 40"/>
  </symbol>
</svg>
